# xmcd CD database file
#
# Track frame offsets:
#	150
#	22223
#	40712
#	60334
#	84928
#	105952
#	124710
#	152972
#	176204
#	200050
#	242956
#
# Disc length: 3568 seconds
#
# Revision: 0
# Processed by: cddbd v1.5.1PL0 Copyright (c) Steve Scherf et al.
# Submitted via: CDex 1.51
#
DISCID=8e0dee0b
DTITLE=Jon Barry Project - Friends Like These
DYEAR=2003
DGENRE=Jazz
TTITLE0=Latin Breeze
TTITLE1=So Glad You're Here
TTITLE2=Too Soon For Goodbye
TTITLE3=December 1st
TTITLE4=Make It Happen
TTITLE5=Summertime, Sunshine, Smile
TTITLE6=Symbiotic
TTITLE7=A New Beginning
TTITLE8=Friends Like These
TTITLE9=One And Only
TTITLE10=Data
EXTD=YEAR: 2003
EXTT0=
EXTT1=
EXTT2=
EXTT3=
EXTT4=
EXTT5=
EXTT6=
EXTT7=
EXTT8=
EXTT9=
EXTT10=
PLAYORDER=
